# xmcd
#
# Track frame offsets: 
#        150
#        13075
#        25745
#        41010
#        55287
#        71922
#        84865
#        95922
#        108680
#        124577
#        141620
#
# Disc length: 2075 seconds
#
# Revision: 5
# Processed by: cddbd v1.5.2PL0 Copyright (c) Steve Scherf et al.
# Submitted via: ExactAudioCopy v1.0b3
#
DISCID=9f08190b
DTITLE=Kelly Willis - Well Travelled Love
DYEAR=1990
DGENRE=Country
TTITLE0=My Heart's in Trouble Tonight
TTITLE1=Hole in My Heart
TTITLE2=I Don't Want to Love You (But I Do)
TTITLE3=Looking for Someone Like You
TTITLE4=Don't Be Afraid
TTITLE5=River of Love
TTITLE6=I'm Just Lonely
TTITLE7=One More Time
TTITLE8=Drive South
TTITLE9=Well Traveled Love
TTITLE10=Red Sunset
EXTD=
EXTT0=
EXTT1=
EXTT2=
EXTT3=
EXTT4=
EXTT5=
EXTT6=
EXTT7=
EXTT8=
EXTT9=
EXTT10=
PLAYORDER=
